# xmcd
#
# Track frame offsets: 
#        150
#        11028
#        39048
#        55744
#        75539
#        95318
#        114059
#        132993
#        160203
#        180043
#        202107
#        220972
#        239527
#        253817
#        267879
#
# Disc length: 3986 seconds
#
# Revision: 0
# Processed by: cddbd v1.5PL3 Copyright (c) Steve Scherf et al.
# Submitted via: ExactAudioCopy v0.95a4
#
DISCID=bd0f900f
DTITLE=Fillmore Sims - Born To Sing The Blues
DYEAR=1987
DGENRE=Blues
TTITLE0=Minding My Own Business
TTITLE1=King Boy
TTITLE2=Better Man
TTITLE3=When I Come Home
TTITLE4=Watch Dog
TTITLE5=3rd Rate Love Affair
TTITLE6=Send Her Home
TTITLE7=Broke Baby
TTITLE8=Lonely Heart And Broken Mind
TTITLE9=So Much Trouble
TTITLE10=Body Language
TTITLE11=Things That I USed To Do
TTITLE12=Sims Boogie
TTITLE13=Better Man (alternative take)
TTITLE14=Interview
EXTD=
EXTT0=
EXTT1=
EXTT2=
EXTT3=
EXTT4=
EXTT5=
EXTT6=
EXTT7=
EXTT8=
EXTT9=
EXTT10=
EXTT11=
EXTT12=
EXTT13=
EXTT14=
PLAYORDER=
